<?xml version="1.0" encoding="UTF-8"?>
<svg version="1.1" xmlns="http://www.w3.org/2000/svg" width="1187" height="350">
<path d="M0 0 C391.71 0 783.42 0 1187 0 C1187 115.5 1187 231 1187 350 C795.29 350 403.58 350 0 350 C0 234.5 0 119 0 0 Z " fill="#FEFEFE" transform="translate(0,0)"/>
<path d="M0 0 C4.18179492 1.59921374 6.76728418 4.68877156 9.6875 7.9375 C10.22004395 8.52160645 10.75258789 9.10571289 11.30126953 9.70751953 C14.43939376 13.17766051 17.448238 16.72341139 20.375 20.375 C25.20248657 26.39173965 30.48270464 31.94530903 35.76953125 37.5546875 C38.71032579 40.67775922 41.56399177 43.86272092 44.36328125 47.11328125 C46.37873772 49.43658787 48.43848462 51.71748465 50.5 54 C53.76390848 57.61676345 56.98790949 61.26389608 60.1875 64.9375 C62.27211164 67.30964429 64.38428644 69.65556065 66.5 72 C69.76390848 75.61676345 72.98790949 79.26389608 76.1875 82.9375 C78.27211164 85.30964429 80.38428644 87.65556065 82.5 90 C85.76390848 93.61676345 88.98790949 97.26389608 92.1875 100.9375 C94.27211164 103.30964429 96.38428644 105.65556065 98.5 108 C102.37507278 112.29840006 106.21312721 116.62373067 110 121 C110.4424707 121.51079102 110.88494141 122.02158203 111.34082031 122.54785156 C114.44157279 126.13162554 117.52536773 129.72916692 120.59130859 133.34277344 C121.81128604 134.77799128 123.03965337 136.20606949 124.26953125 137.6328125 C129.81113809 144.25650825 133.95043095 151.39429678 138 159 C138.33942627 159.61907227 138.67885254 160.23814453 139.02856445 160.87597656 C141.70433688 165.92916429 143.30585454 170.96453298 144.6875 176.5 C144.89955078 177.30308594 145.11160156 178.10617188 145.33007812 178.93359375 C153.67327192 211.41151533 145.75435901 240.30396961 129.53955078 268.4296875 C125.45248679 275.25312703 120.80598455 281.66968645 116 288 C115.55769043 288.58813477 115.11538086 289.17626953 114.65966797 289.78222656 C103.9825266 303.82151438 90.93263496 310.67304897 74 315 C73.11117237 315.2441738 73.11117237 315.2441738 72.20438862 315.49328041 C65.68479555 317.13902383 59.4292906 317.2959766 52.72924805 317.29052734 C51.53110977 317.29724457 50.3329715 317.30396179 49.098526 317.31088257 C45.83331732 317.32655068 42.5682619 317.33323361 39.30302024 317.33451414 C37.25198347 317.33594429 35.20097267 317.34023038 33.1499424 317.34550858 C25.96216796 317.36398233 18.77446731 317.3721838 11.58666992 317.37060547 C4.94127575 317.36940945 -1.70379082 317.39041182 -8.34910232 317.4220928 C-14.09478693 317.44848461 -19.84036622 317.45896309 -25.58611077 317.45769465 C-28.9994579 317.45719104 -32.41251448 317.46253068 -35.82579994 317.48405075 C-60.58052878 317.61282269 -85.65218601 316.54377891 -105 299 C-111.20014893 292.66726927 -116.06360723 285.36113975 -120.9375 278 C-121.53369644 277.10376419 -121.53369644 277.10376419 -122.14193726 276.18942261 C-128.1649609 267.11061918 -133.64098345 258.00145708 -138 248 C-138.49628906 246.89527344 -138.99257812 245.79054688 -139.50390625 244.65234375 C-148.28150835 224.47136115 -149.30093572 198.09030183 -143 177 C-142.80132324 176.32855957 -142.60264648 175.65711914 -142.39794922 174.96533203 C-136.52587075 155.6072666 -125.96510501 141.37662039 -112.33984375 126.5546875 C-109.7720803 123.75115278 -107.27103125 120.89655125 -104.77734375 118.02734375 C-102.70640513 115.66510827 -100.60487152 113.33204147 -98.5 111 C-95.81016569 108.01937279 -93.13689636 105.02754767 -90.5 102 C-87.10746907 98.10487189 -83.64805799 94.27217237 -80.1875 90.4375 C-78.27445851 88.30582519 -76.38112388 86.1598089 -74.5 84 C-71.10746907 80.10487189 -67.64805799 76.27217237 -64.1875 72.4375 C-62.27445851 70.30582519 -60.38112388 68.1598089 -58.5 66 C-55.10746907 62.10487189 -51.64805799 58.27217237 -48.1875 54.4375 C-46.27445851 52.30582519 -44.38112388 50.1598089 -42.5 48 C-39.86310364 44.97245233 -37.18983431 41.98062721 -34.5 39 C-29.68985199 33.66437363 -24.94019763 28.28413119 -20.28515625 22.8125 C-13.68033501 15.05596374 -6.93959884 7.45870269 0 0 Z " fill="#216276" transform="translate(154,26)"/>
<path d="M0 0 C3.15573161 1.34360392 4.71328134 2.58529204 6.55859375 5.46484375 C7.01999756 6.1724585 7.48140137 6.88007324 7.95678711 7.60913086 C8.44542236 8.37749268 8.93405762 9.14585449 9.4375 9.9375 C10.50923903 11.58410044 11.58219553 13.22990896 12.65625 14.875 C13.20796875 15.72449219 13.7596875 16.57398437 14.328125 17.44921875 C16.97339423 21.48510849 19.70316309 25.46163752 22.4375 29.4375 C23.52736704 31.02602569 24.61721066 32.61456745 25.70703125 34.203125 C26.24924316 34.99267578 26.79145508 35.78222656 27.35009766 36.59570312 C29.5634386 39.82106294 31.77109344 43.05029558 33.97875977 46.27954102 C38.47699884 52.85912458 42.98217332 59.43385059 47.5 66 C53.12948224 74.18181487 58.73696291 82.37861487 64.34277344 90.57666016 C67.061094 94.55162332 69.78058496 98.52578556 72.5 102.5 C75.77403469 107.28474811 79.0477981 112.06968067 82.3203125 116.85546875 C89.28242455 127.03649688 89.28242455 127.03649688 96.26269531 137.20507812 C97.16474659 138.51774056 98.06516149 139.83152914 98.96386719 141.14648438 C101.2542558 144.49229748 103.57546107 147.8092706 105.953125 151.09375 C111.72683345 159.13908144 116.00486067 166.4829772 119 176 C119.37125 177.03382813 119.7425 178.06765625 120.125 179.1328125 C121.86944974 184.8490005 120.38309639 189.61404673 118 194.875 C110.38237073 209.08438869 98.01238469 217.20892221 83 222 C68.93773284 226.20769266 54.27460879 225.45978406 39.74556851 225.43590808 C36.8036776 225.43278371 33.86183322 225.43894417 30.919949 225.44494683 C23.96962264 225.45891669 17.01941941 225.45749384 10.0690918 225.44604492 C2.94520015 225.43456803 -4.1783148 225.44864929 -11.30215687 225.4754414 C-17.46319455 225.49772819 -23.62411511 225.5042069 -29.78519017 225.49836498 C-33.4453349 225.49502537 -37.10523837 225.49720745 -40.76534843 225.51461601 C-69.55289296 225.63862969 -69.55289296 225.63862969 -83 221 C-84.04880844 220.67869614 -85.09761688 220.35739227 -86.1782074 220.02635193 C-93.00953277 217.90143121 -98.45839974 214.47946021 -104 210 C-105.06734375 209.13955078 -105.06734375 209.13955078 -106.15625 208.26171875 C-112.49365194 202.57024432 -118.1484874 194.09304568 -119.3515625 185.484375 C-119.17567001 183.15589348 -118.71812667 181.22145777 -118 179 C-117.74476562 178.14019531 -117.48953125 177.28039062 -117.2265625 176.39453125 C-113.056039 163.75820149 -105.60527611 153.39514291 -97.984375 142.65234375 C-93.72243488 136.63442482 -89.57448197 130.54174744 -85.4375 124.4375 C-84.35843384 122.84663574 -84.35843384 122.84663574 -83.25756836 121.22363281 C-81.8386994 119.13178698 -80.41999442 117.0398299 -79.00146484 114.94775391 C-76.09456188 110.66647233 -73.17408108 106.39456108 -70.25 102.125 C-69.73058838 101.36654785 -69.21117676 100.6080957 -68.67602539 99.82666016 C-67.64054953 98.31488161 -66.60498701 96.80316243 -65.56933594 95.29150391 C-63.94363294 92.91769428 -62.31928199 90.5429646 -60.6953125 88.16796875 C-55.19349262 80.12200139 -49.6842292 72.08130326 -44.15917969 64.05126953 C-38.97778491 56.51826119 -33.81796692 48.97050594 -28.65722656 41.42333984 C-27.01921186 39.02809324 -25.38079086 36.63312519 -23.7421875 34.23828125 C-22.9380542 33.0630188 -22.9380542 33.0630188 -22.11767578 31.86401367 C-21.0458529 30.29768996 -19.97391425 28.73144546 -18.90185547 27.1652832 C-16.04061748 22.9848465 -13.18241274 18.80237336 -10.328125 14.6171875 C-9.72935547 13.73998047 -9.13058594 12.86277344 -8.51367188 11.95898438 C-7.35784963 10.26557039 -6.20287066 8.57158046 -5.04882812 6.87695312 C-4.27442383 5.74290039 -4.27442383 5.74290039 -3.484375 4.5859375 C-2.79939941 3.58119385 -2.79939941 3.58119385 -2.10058594 2.55615234 C-1 1 -1 1 0 0 Z " fill="#FDFEFE" transform="translate(154,69)"/>
<path d="M0 0 C0.66 0 1.32 0 2 0 C5.89689529 23.83368996 2.08257776 46.81334899 -12 67 C-20.90525851 76.65969071 -33.63751325 80.68500062 -46 84 C-46.6148334 84.1698321 -47.22966681 84.33966419 -47.86313152 84.51464272 C-54.35666869 86.14895209 -60.59871543 86.29595382 -67.27075195 86.29052734 C-68.46889023 86.29724457 -69.6670285 86.30396179 -70.901474 86.31088257 C-74.16668268 86.32655068 -77.4317381 86.33323361 -80.69697976 86.33451414 C-82.74801653 86.33594429 -84.79902733 86.34023038 -86.8500576 86.34550858 C-94.03783204 86.36398233 -101.22553269 86.3721838 -108.41333008 86.37060547 C-115.05872425 86.36940945 -121.70379082 86.39041182 -128.34910232 86.4220928 C-134.09478693 86.44848461 -139.84036622 86.45896309 -145.58611077 86.45769465 C-148.9994579 86.45719104 -152.41251448 86.46253068 -155.82579994 86.48405075 C-179.83405115 86.60893958 -204.02582537 85.66443528 -223.4140625 69.578125 C-235.98246478 57.07163604 -241.84401026 35.51014849 -242.3125 18.25 C-242.1438269 12.41746174 -241.11734458 6.7164147 -240 1 C-237 2 -237 2 -235.7109375 4.40625 C-235.27007812 5.4271875 -234.82921875 6.448125 -234.375 7.5 C-228.93564948 18.73865805 -219.64628198 26.4796228 -207.89941406 30.76660156 C-199.20625919 33.64912867 -190.498347 36.10636698 -181.28120422 36.14717102 C-180.16450348 36.15432632 -179.04780273 36.16148163 -177.89726257 36.16885376 C-176.68633438 36.17154266 -175.47540619 36.17423157 -174.2277832 36.17700195 C-172.29715027 36.18685875 -172.29715027 36.18685875 -170.32751465 36.19691467 C-166.06861601 36.21787548 -161.80971739 36.22831783 -157.55078125 36.23828125 C-156.07585317 36.24233346 -154.60092527 36.24645052 -153.12599754 36.25063133 C-146.18534864 36.26967497 -139.24471023 36.28390099 -132.30404025 36.2922433 C-124.34074272 36.30197668 -116.37772604 36.32819673 -108.41452724 36.36874419 C-102.23071883 36.39912915 -96.04698981 36.4137336 -89.86310834 36.41702431 C-86.18425475 36.4193518 -82.50570132 36.42800388 -78.82692909 36.45348549 C-53.69318942 36.61837279 -29.55623881 36.19665712 -10.34765625 17.6953125 C-6.71515866 13.52489097 -4.2935718 9.00270365 -2 4 C-1.33693206 2.66487337 -0.67161406 1.33084814 0 0 Z " fill="#1F2C5B" transform="translate(274,257)"/>
<path d="M0 0 C0.62132812 0.53367188 1.24265625 1.06734375 1.8828125 1.6171875 C2.50414062 2.13023437 3.12546875 2.64328125 3.765625 3.171875 C12.54524595 11.11534157 17.30005075 22.49592549 18.046875 34.18505859 C18.69936148 50.05407361 18.46675474 64.28914989 8.8828125 77.6171875 C8.43035156 78.26429688 7.97789062 78.91140625 7.51171875 79.578125 C0.7829901 88.30831685 -8.62647112 91.56230491 -19.1171875 93.6171875 C-16.91113298 98.15185512 -14.87346466 99.92324656 -10.1171875 101.6171875 C-7.14304504 101.94368598 -4.22930299 101.9034142 -1.2421875 101.8046875 C-0.4584375 101.79115234 0.3253125 101.77761719 1.1328125 101.76367188 C3.04978032 101.72860539 4.96639001 101.67480822 6.8828125 101.6171875 C8.14586585 106.69195544 9.15317334 111.34515104 8.8828125 116.6171875 C1.3053311 120.29600342 -9.48368512 119.61050886 -17.5546875 117.5546875 C-25.24210012 114.78514827 -31.23701945 109.63209715 -35.25390625 102.55078125 C-36.41749221 99.94455929 -36.90444724 97.45372431 -37.1171875 94.6171875 C-38.13425781 94.48763672 -38.13425781 94.48763672 -39.171875 94.35546875 C-48.95980026 92.87779028 -58.67950728 89.45467289 -64.86328125 81.3203125 C-73.68147983 68.92716855 -76.69130957 58.46292624 -76.5546875 43.1796875 C-76.54711426 41.99189697 -76.53954102 40.80410645 -76.53173828 39.58032227 C-76.37530162 31.28061523 -75.79363135 24.17623093 -72.1171875 16.6171875 C-71.69308594 15.72515625 -71.26898437 14.833125 -70.83203125 13.9140625 C-64.84207157 2.76839936 -55.65890885 -3.15720404 -43.91015625 -7.12890625 C-30.00863239 -10.86864829 -11.658431 -8.91005563 0 0 Z " fill="#222D5D" transform="translate(770.1171875,151.3828125)"/>
<path d="M0 0 C61.64268868 0 61.64268868 0 74.875 12.25 C84.99594175 23.50646205 87.52476631 35.70641717 87.375 50.5 C87.38660156 51.64597656 87.39820313 52.79195312 87.41015625 53.97265625 C87.36477418 67.26960334 84.19338967 78.09025618 75.1171875 88.0703125 C55.12372985 106.76864739 24.78721962 101 0 101 C0 67.67 0 34.34 0 0 Z " fill="#222E5D" transform="translate(543,144)"/>
<path d="M0 0 C8.91 0 17.82 0 27 0 C27.9075 2.92875 28.815 5.8575 29.75 8.875 C31.63438755 14.8993453 33.61666653 20.79738259 36.0703125 26.6171875 C37.62782078 30.60912048 38.76946604 34.72884129 39.99609375 38.83203125 C41.16318661 42.51495854 42.58610245 46.04006777 44.06640625 49.60546875 C45.32637275 52.83709831 46.25272944 56.13660225 47.20703125 59.46875 C48.3322395 63.06054778 49.76653235 66.50355224 51.23046875 69.96875 C52 72 52 72 52 74 C54.2278033 73.16277297 54.2278033 73.16277297 54.91381836 70.71850586 C55.37220093 69.23169312 55.37220093 69.23169312 55.83984375 67.71484375 C56.18080078 66.62623047 56.52175781 65.53761719 56.87304688 64.41601562 C57.22431641 63.26810547 57.57558594 62.12019531 57.9375 60.9375 C62.03566785 47.71539632 62.03566785 47.71539632 64.29174805 41.88012695 C65.62671774 38.33631393 66.76334758 34.72455197 67.9375 31.125 C69.54668991 26.23779383 71.16915363 21.38706074 73.125 16.625 C75.33321102 11.17807949 77.14136774 5.57589679 79 0 C87.58 0 96.16 0 105 0 C105 33.33 105 66.66 105 101 C98.73 101 92.46 101 86 101 C86 78.89 86 56.78 86 34 C83.16286578 36.83713422 82.55447424 37.62073707 81.5 41.203125 C81.2525 42.01910156 81.005 42.83507812 80.75 43.67578125 C80.5025 44.52527344 80.255 45.37476563 80 46.25 C77.1788857 55.75656746 77.1788857 55.75656746 75.4375 59.703125 C74.02815144 62.93543528 72.98527421 66.11722522 72 69.5 C69.93431248 76.38824317 69.93431248 76.38824317 68.4375 79.6875 C66.89803137 83.2349712 65.83513388 86.77960357 64.76171875 90.48828125 C63.67730083 94.06407983 62.35401956 97.51823543 61 101 C55.39 101 49.78 101 44 101 C43.5875 99.88625 43.175 98.7725 42.75 97.625 C41.58163681 94.492909 40.3413317 91.40090384 39.0625 88.3125 C37.07345831 83.38544635 35.52278997 78.36950745 34.02734375 73.2734375 C33.04932157 70.15715389 31.94901361 67.12587271 30.78735352 64.07519531 C27.04090755 54.20084159 23.52704318 44.26334202 21 34 C20.01 34 19.02 34 18 34 C18 56.11 18 78.22 18 101 C12.06 101 6.12 101 0 101 C0 67.67 0 34.34 0 0 Z " fill="#232E5E" transform="translate(324,144)"/>
<path d="M0 0 C10.56 0 21.12 0 32 0 C32 11.22 32 22.44 32 34 C43.22 34 54.44 34 66 34 C66 44.89 66 55.78 66 67 C54.78 67 43.56 67 32 67 C32 78.22 32 89.44 32 101 C21.44 101 10.88 101 0 101 C0 89.78 0 78.56 0 67 C-11.22 67 -22.44 67 -34 67 C-34 56.11 -34 45.22 -34 34 C-22.78 34 -11.56 34 0 34 C0 22.78 0 11.56 0 0 Z " fill="#222D5D" transform="translate(139,155)"/>
<path d="M0 0 C6.27 0 12.54 0 19 0 C19.0093457 2.00755371 19.01869141 4.01510742 19.02832031 6.08349609 C19.06223137 12.74923916 19.11785776 19.41467724 19.18390274 26.0801754 C19.22325278 30.1177561 19.25550181 34.15512278 19.27099609 38.19287109 C19.28624571 42.09648194 19.32083571 45.99950391 19.36830902 49.9028511 C19.38303792 51.38497394 19.39103609 52.8671809 19.39188385 54.34937668 C19.40275832 63.83684919 19.44224923 73.32538382 26.4375 80.5 C34.11562292 84.99451098 42.96249095 85.36095136 51.58203125 83.41796875 C56.25663097 81.46053598 58.63291527 78.31674357 60.95883179 73.92678833 C63.16045727 67.73788273 62.7261903 61.08308875 62.70703125 54.58984375 C62.72016586 53.0108501 62.73547547 51.43187318 62.75285339 49.85292053 C62.79251088 45.7248946 62.80288128 41.59731012 62.80688477 37.46911621 C62.81625281 33.24555228 62.85368905 29.02224382 62.88867188 24.79882812 C62.95305165 16.53250327 62.98385376 8.26655991 63 0 C69.27 0 75.54 0 82 0 C82.06791616 9.64061146 82.12289689 19.28106268 82.15543652 28.92185974 C82.17105796 33.39900641 82.19223151 37.87598017 82.22631836 42.35302734 C82.25903794 46.67781258 82.27687948 51.00243203 82.28463173 55.32733154 C82.2901527 56.97306933 82.30093367 58.61879858 82.31719017 60.26446533 C82.33913256 62.57884971 82.34196002 64.89255873 82.34057617 67.20703125 C82.35056892 69.17893433 82.35056892 69.17893433 82.36076355 71.19067383 C81.55106994 79.74028214 77.47665344 88.18655448 70.890625 93.796875 C58.94218447 102.11958185 45.20000747 103.20023094 31 102 C19.83299597 99.94292031 11.67235812 95.21694271 5 86 C-0.03434223 75.48111854 -0.69266356 65.45218382 -0.48828125 54.00390625 C-0.47892417 52.4335189 -0.47182181 50.86311668 -0.46684265 49.29270935 C-0.44799969 45.21375267 -0.39910444 41.13572524 -0.34332275 37.05712891 C-0.29163131 32.87350018 -0.26922356 28.68971726 -0.24414062 24.50585938 C-0.19095531 16.33677129 -0.10321519 8.16860924 0 0 Z " fill="#222E5D" transform="translate(809,144)"/>
<path d="M0 0 C6.27 0 12.54 0 19 0 C19.00410889 2.10366943 19.00821777 4.20733887 19.01245117 6.37475586 C19.02970521 13.35184701 19.07430073 20.3285747 19.13209057 27.30544186 C19.16627464 31.53255646 19.19145708 35.75931294 19.19555664 39.98657227 C19.19985818 44.07179528 19.22847266 48.15621164 19.27343178 52.24118233 C19.28634793 53.79391328 19.29073544 55.34674106 19.28615379 56.89951897 C19.2300941 69.30877224 19.2300941 69.30877224 25 80 C30.55487999 84.60066038 36.6483033 84.54515621 43.6484375 84.3203125 C49.22560141 83.78729683 53.22993946 82.77006054 57.3125 78.6875 C60.71671156 73.26597789 62.37392835 69.36873908 62.43237305 62.89306641 C62.4425647 62.20944031 62.45275635 61.52581421 62.46325684 60.82147217 C62.49324143 58.58141734 62.50262998 56.34179113 62.51171875 54.1015625 C62.52857631 52.54070633 62.546728 50.97986365 62.56611633 49.41903687 C62.61350584 45.32562474 62.64338638 41.23226732 62.66955566 37.13867188 C62.6994172 32.95561932 62.74592823 28.772755 62.79101562 24.58984375 C62.87692307 16.39330628 62.9427837 8.19678801 63 0 C69.27 0 75.54 0 82 0 C82.06800806 9.21491836 82.12294938 18.4296677 82.15543652 27.64478111 C82.17103542 31.92457849 82.19216697 36.20419398 82.22631836 40.48388672 C82.25911939 44.62065014 82.27689635 48.75723955 82.28463173 52.89412308 C82.29013826 54.46564087 82.30089037 56.03715008 82.31719017 57.60859299 C82.44713614 70.66597338 81.25089338 81.7542166 72.3203125 91.91015625 C63.22290753 100.79994409 50.45293842 102.2662211 38.25146484 102.24658203 C26.84957677 102.05685378 16.23003685 99.13599856 7.9296875 90.9609375 C-0.62070063 80.83641934 -0.42016191 69.45086645 -0.29296875 56.8359375 C-0.28736297 55.19113556 -0.28309752 53.54632855 -0.28010559 51.90151978 C-0.26873404 47.60412395 -0.23933457 43.30703965 -0.20599365 39.00976562 C-0.1751255 34.61202201 -0.16156472 30.21422732 -0.14648438 25.81640625 C-0.11445618 17.21077967 -0.06175262 8.60546466 0 0 Z " fill="#212D5C" transform="translate(1005,144)"/>
<path d="M0 0 C22.11 0 44.22 0 67 0 C67 5.28 67 10.56 67 16 C51.49 16 35.98 16 20 16 C20 23.92 20 31.84 20 40 C33.53 40 47.06 40 61 40 C61 45.28 61 50.56 61 56 C47.47 56 33.94 56 20 56 C20 65.57 20 75.14 20 85 C35.84 85 51.68 85 68 85 C68 90.28 68 95.56 68 101 C45.56 101 23.12 101 0 101 C0 67.67 0 34.34 0 0 Z " fill="#212C5C" transform="translate(1113,144)"/>
<path d="M0 0 C22.11 0 44.22 0 67 0 C67 5.28 67 10.56 67 16 C51.16 16 35.32 16 19 16 C19 23.92 19 31.84 19 40 C32.86 40 46.72 40 61 40 C61 45.28 61 50.56 61 56 C47.14 56 33.28 56 19 56 C19 65.57 19 75.14 19 85 C35.17 85 51.34 85 68 85 C68 90.28 68 95.56 68 101 C45.56 101 23.12 101 0 101 C0 67.67 0 34.34 0 0 Z " fill="#1F2B5B" transform="translate(918,144)"/>
<path d="M0 0 C22.11 0 44.22 0 67 0 C67 5.28 67 10.56 67 16 C51.16 16 35.32 16 19 16 C19 23.92 19 31.84 19 40 C32.86 40 46.72 40 61 40 C61 45.28 61 50.56 61 56 C47.14 56 33.28 56 19 56 C19 65.57 19 75.14 19 85 C35.17 85 51.34 85 68 85 C68 90.28 68 95.56 68 101 C45.56 101 23.12 101 0 101 C0 67.67 0 34.34 0 0 Z " fill="#1F2B5B" transform="translate(456,144)"/>
<path d="M0 0 C6.19350176 3.92623772 9.63778115 9.1604609 11.6796875 16.11328125 C14.45524158 28.53922337 15.1141471 44.30366732 8.86328125 55.828125 C4.35487858 62.25348628 -1.07212844 65.83864444 -8.8125 67.38671875 C-16.52939063 68.1173878 -23.68593514 67.39108525 -30.08203125 62.734375 C-37.4063534 56.49220495 -40.13605229 49.98832717 -41.11669922 40.41796875 C-41.24816022 37.40180699 -41.27134104 34.40550529 -41.25 31.38671875 C-41.26998047 30.38382813 -41.28996094 29.3809375 -41.31054688 28.34765625 C-41.30495352 19.68914008 -39.31465076 12.3607229 -34.6875 5.01171875 C-24.96505437 -3.86529682 -12.03810607 -5.64286222 0 0 Z " fill="#FBFBFC" transform="translate(754.8125,162.61328125)"/>
<path d="M0 0 C30.38235294 0 30.38235294 0 39.58984375 8.4609375 C46.43799902 15.59373492 47.57100946 24.76705379 47.5 34.3125 C47.49355469 35.22531738 47.48710938 36.13813477 47.48046875 37.07861328 C47.22190957 46.69803529 45.42004886 55.22055493 38.1875 62.125 C26.73664237 70.87007842 14.27964321 69 0 69 C0 46.23 0 23.46 0 0 Z " fill="#FCFCFC" transform="translate(563,160)"/>
<path d="M0 0 C6.6 0 13.2 0 20 0 C20 33.33 20 66.66 20 101 C13.4 101 6.8 101 0 101 C0 67.67 0 34.34 0 0 Z " fill="#232F5E" transform="translate(652,144)"/>
<path d="M0 0 C0.66 0 1.32 0 2 0 C2 22.11 2 44.22 2 67 C1.67 67 1.34 67 1 67 C0.67 46.54 0.34 26.08 0 5 C-0.66 5 -1.32 5 -2 5 C-1.34 3.35 -0.68 1.7 0 0 Z " fill="#DADCE4" transform="translate(408,178)"/>
<path d="M0 0 C0.66 0.33 1.32 0.66 2 1 C-0.64 4.3 -3.28 7.6 -6 11 C-6 6.70091749 -4.2851319 4.62932713 -2 1 C-1.34 0.67 -0.68 0.34 0 0 Z " fill="#329794" transform="translate(271,309)"/>
<path d="M0 0 C2.61500768 2.36595933 4.38999603 4.86049226 6 8 C5.67 8.66 5.34 9.32 5 10 C3.96704564 8.90716423 2.94892165 7.80029421 1.9375 6.6875 C1.36902344 6.07261719 0.80054688 5.45773437 0.21484375 4.82421875 C-0.38650391 3.92123047 -0.38650391 3.92123047 -1 3 C-0.67 2.01 -0.34 1.02 0 0 Z " fill="#2E9592" transform="translate(40,310)"/>
</svg>
