<?xml version="1.0" encoding="UTF-8"?>
<svg version="1.1" xmlns="http://www.w3.org/2000/svg" width="472" height="472">
<path d="M0 0 C4.09367333 0.50824387 5.68884268 2.51011004 8.3125 5.5625 C9.49779297 6.92568359 9.49779297 6.92568359 10.70703125 8.31640625 C11.84205078 9.64478516 11.84205078 9.64478516 13 11 C14.16507622 12.3347233 15.33159897 13.66818623 16.5 15 C17.05945313 15.64324219 17.61890625 16.28648438 18.1953125 16.94921875 C20.22958141 19.26088797 22.3022231 21.5353143 24.375 23.8125 C27.42858867 27.18940982 30.34429205 30.63217132 33.1875 34.1875 C38.09003486 40.25320218 43.42258037 45.88164977 48.76953125 51.5546875 C51.71032579 54.67775922 54.56399177 57.86272092 57.36328125 61.11328125 C59.37873772 63.43658787 61.43848462 65.71748465 63.5 68 C68.29907792 73.32334693 73.0407795 78.68863339 77.6796875 84.15234375 C83.27441739 90.73318179 88.95735112 97.19765898 94.84375 103.51953125 C98.05969439 106.97369374 101.20517955 110.47435592 104.29296875 114.04296875 C106.33633431 116.3855915 108.41680859 118.69273422 110.5 121 C113.76704335 124.62023723 116.99520776 128.26983565 120.1953125 131.94921875 C122.22958141 134.26088797 124.3022231 136.5353143 126.375 138.8125 C129.42858867 142.18940982 132.34429205 145.63217132 135.1875 149.1875 C140.09003486 155.25320218 145.42258037 160.88164977 150.76953125 166.5546875 C153.71551135 169.68326619 156.57597323 172.87194631 159.375 176.1328125 C161.31159325 178.35803263 163.31510693 180.51672211 165.3125 182.6875 C182.76993601 202.1307564 195.47761154 224.31698975 201.49609375 249.86767578 C201.9583422 251.82372131 202.4615681 253.76996477 202.96875 255.71484375 C211.71922381 294.97044155 201.66006037 336.91112436 180.46289062 370.43066406 C176.78438809 376.05595021 172.91421605 381.53728958 169 387 C168.06089896 388.33312278 167.12208237 389.66644601 166.18359375 391 C163.53451994 394.72884109 160.80150071 398.38444561 158 402 C157.50564453 402.63953613 157.01128906 403.27907227 156.50195312 403.93798828 C140.02878428 424.91375403 118.04091747 434.61348865 91.81440926 438.56578445 C84.84372041 439.35929696 77.87440388 439.29556478 70.86889648 439.29052734 C69.18516242 439.29652606 67.50143108 439.30333464 65.81770325 439.31088257 C61.28006985 439.32841615 56.74251206 439.33323265 52.20484805 439.33451414 C49.3584566 439.33594385 46.51208387 439.34022889 43.6656971 439.34550858 C33.70281904 439.36396917 23.7399942 439.37218444 13.77709961 439.37060547 C4.54368318 439.36940612 -4.68949874 439.39047809 -13.92285591 439.4220928 C-21.89365168 439.44839536 -29.86437153 439.4589669 -37.83521026 439.45769465 C-42.57644324 439.45718898 -47.31746761 439.46265012 -52.05865669 439.48405075 C-89.80425918 439.64264208 -89.80425918 439.64264208 -106 435 C-107.03187533 434.71550303 -107.03187533 434.71550303 -108.08459663 434.42525864 C-129.04283352 428.63585543 -143.77054874 417.0470517 -156.61328125 399.85595703 C-157.9704138 398.03959758 -159.34356008 396.23630128 -160.71875 394.43359375 C-190.40063125 355.14592569 -207.57178271 312.45311456 -201.3046875 262.62890625 C-198.70214712 245.67181969 -193.11546719 229.82863135 -184.96289062 214.77832031 C-184.08737104 213.16136172 -183.23752418 211.53056844 -182.390625 209.8984375 C-175.23700651 196.75986097 -164.81942906 185.6517 -154.6328125 174.80859375 C-150.38804774 170.28042481 -146.34869725 165.58946343 -142.33203125 160.859375 C-136.2583712 153.71889643 -130.05272228 146.74233219 -123.66796875 139.87890625 C-119.4325365 135.3086082 -115.36473809 130.60835337 -111.33203125 125.859375 C-105.73207562 119.27580547 -100.0463913 112.8063603 -94.15625 106.48046875 C-90.93710045 103.02286368 -87.78755757 99.51970949 -84.69921875 95.9453125 C-82.70593572 93.6633471 -80.66506973 91.42771426 -78.625 89.1875 C-75.57141133 85.81059018 -72.65570795 82.36782868 -69.8125 78.8125 C-64.90595269 72.74183338 -59.56799383 67.10931085 -54.21875 61.4296875 C-50.26683983 57.23191078 -46.47654227 52.91709495 -42.74560547 48.52246094 C-36.67959403 41.37977988 -30.54263174 34.33931241 -24.15625 27.48046875 C-20.9440577 24.03033628 -17.80120703 20.5347297 -14.71875 16.96875 C-11.89642341 13.73590318 -9.00073164 10.56918808 -6.11328125 7.39453125 C-3.99127508 4.99011391 -1.98279012 2.51988903 0 0 Z M0 60 C-1.56500188 62.00946241 -2.90511161 63.97251864 -4.25 66.125 C-5.14295272 67.50883237 -6.03758924 68.89157915 -6.93359375 70.2734375 C-7.4219873 71.03108398 -7.91038086 71.78873047 -8.41357422 72.56933594 C-11.31136666 77.00922845 -14.31750952 81.37535499 -17.3125 85.75 C-18.61068788 87.65103429 -19.90886496 89.55207596 -21.20703125 91.453125 C-25.16602035 97.2440345 -29.1269825 103.033594 -33.08959961 108.82202148 C-39.74022184 118.53858359 -46.36911174 128.2699657 -53 138 C-60.68627854 149.27869313 -68.37584626 160.55504107 -76.08642578 171.81713867 C-80.23161211 177.87310547 -84.36711922 183.93563003 -88.5 190 C-93.68702441 197.61116439 -98.88256707 205.21640954 -104.0859375 212.81640625 C-108.87209972 219.80887252 -113.64563564 226.80991385 -118.41625977 233.81298828 C-121.88925625 238.90981031 -125.37126252 244.0002095 -128.86474609 249.08300781 C-130.9967526 252.19000519 -133.11854483 255.30389932 -135.23876953 258.41894531 C-136.49112249 260.25424827 -137.74776238 262.08662915 -139.00732422 263.91699219 C-150.93322293 281.16891539 -150.93322293 281.16891539 -160 300 C-160.65742188 301.61261719 -160.65742188 301.61261719 -161.328125 303.2578125 C-164.39237918 311.40872863 -164.86123099 316.74950669 -161.453125 324.76171875 C-157.52991109 333.39995037 -152.89255623 340.39363988 -146 347 C-145.33742188 347.69351562 -144.67484375 348.38703125 -143.9921875 349.1015625 C-123.50597711 369.27619555 -90.94392128 371.1556171 -63.9921875 371.14526367 C-62.41697613 371.14826292 -60.84176549 371.15166719 -59.26655579 371.15544128 C-55.02018719 371.16421016 -50.77383879 371.16661645 -46.52746201 371.16725707 C-43.86316472 371.16797193 -41.19887245 371.17011448 -38.53457642 371.17275429 C-29.20712971 371.18198605 -19.87969722 371.18609213 -10.55224609 371.18530273 C-1.9113851 371.18470338 6.72941318 371.19523288 15.37025833 371.2110464 C22.83147596 371.22420555 30.29267332 371.22948311 37.75390244 371.22884732 C42.19103965 371.22859467 46.62812111 371.23131479 51.06524658 371.24202538 C102.45768257 372.02640708 102.45768257 372.02640708 147 349 C147.68320312 348.39671875 148.36640625 347.7934375 149.0703125 347.171875 C157.50453438 339.28283096 165.73226752 327.49954205 167.29296875 315.8046875 C166.32273426 296.90308234 152.04810367 278.12161966 141.58789062 263.27099609 C138.55856225 258.93846034 135.59730683 254.55925218 132.625 250.1875 C131.33618884 248.29540169 130.04712705 246.40347408 128.7578125 244.51171875 C128.12649414 243.58536621 127.49517578 242.65901367 126.84472656 241.70458984 C124.06776536 237.63323249 121.28426346 233.56636563 118.5 229.5 C113.18521516 221.7373369 107.88399426 213.96549362 102.5859375 206.19140625 C98.5634219 200.29006135 94.53466471 194.39304443 90.5 188.5 C82.67789794 177.07425529 74.88178423 165.63081386 67.08398438 154.18847656 C60.03615874 143.84710626 52.98346243 133.50916312 45.91357422 123.18286133 C41.1320255 116.19719218 36.36341508 109.20273661 31.59692383 102.20678711 C28.57390574 97.77086637 25.54779276 93.33715375 22.51171875 88.91015625 C21.95661621 88.1003833 21.40151367 87.29061035 20.82958984 86.45629883 C19.74905136 84.88111598 18.66737607 83.30671225 17.58447266 81.7331543 C15.03157878 78.01373527 12.51704524 74.27716279 10.07421875 70.484375 C9.61700439 69.77917725 9.15979004 69.07397949 8.6887207 68.34741211 C7.83562073 67.02598705 6.99116187 65.69892833 6.15698242 64.36547852 C4.93717214 62.42579252 4.93717214 62.42579252 3 60 C2.01 60 1.02 60 0 60 Z " fill="#1F6175" transform="translate(229,22)"/>
<path d="M0 0 C0.66 0 1.32 0 2 0 C2.29132813 0.75023437 2.58265625 1.50046875 2.8828125 2.2734375 C10.71665486 21.83340868 22.41829811 34.40493859 41.6875 43.1875 C66.49845742 53.28968136 92.97528354 52.30861516 119.2836895 52.26865101 C123.73588159 52.2635139 128.18806629 52.26830351 132.64025879 52.27142334 C140.110611 52.27504088 147.5809234 52.2703225 155.05126953 52.26074219 C163.63322787 52.24986195 172.2150911 52.25338911 180.79704714 52.264395 C188.22446129 52.27353147 195.65184715 52.27472235 203.07926512 52.26951766 C207.48944877 52.26643262 211.89958804 52.26589129 216.30976868 52.27259064 C267.56821663 52.98084567 267.56821663 52.98084567 312 30 C312.60972656 29.47019531 313.21945312 28.94039063 313.84765625 28.39453125 C322.25850769 20.61218299 326.99805146 10.56735721 331 0 C331.66 0 332.32 0 333 0 C341.54720203 27.92085997 334.63365842 55.959197 321.375 81 C320.28319123 83.03659329 319.18120481 85.06599534 318.05932617 87.08618164 C317.35776857 88.3536419 316.67015529 89.62892962 315.99731445 90.91186523 C308.62620155 104.62976744 290.6611747 111.47473743 276.5859375 116.12890625 C263.08132102 120.18627994 249.90640577 121.30062127 235.86889648 121.29052734 C234.18516242 121.29652606 232.50143108 121.30333464 230.81770325 121.31088257 C226.28006985 121.32841615 221.74251206 121.33323265 217.20484805 121.33451414 C214.3584566 121.33594385 211.51208387 121.34022889 208.6656971 121.34550858 C198.70281904 121.36396917 188.7399942 121.37218444 178.77709961 121.37060547 C169.54368318 121.36940612 160.31050126 121.39047809 151.07714409 121.4220928 C143.10634832 121.44839536 135.13562847 121.4589669 127.16478974 121.45769465 C122.42355676 121.45718898 117.68253239 121.46265012 112.94134331 121.48405075 C75.19574082 121.64264208 75.19574082 121.64264208 59 117 C58.31208311 116.81033535 57.62416622 116.6206707 56.91540337 116.42525864 C42.60850664 112.47318985 24.91856548 104.74545593 16.56640625 91.7734375 C15.75077869 90.17427264 14.98706699 88.54785857 14.26953125 86.90234375 C13.2963185 84.67742968 12.27525379 82.57976868 11.13671875 80.44140625 C7.37855964 73.34335788 4.17029298 66.25045728 1.625 58.625 C1.386604 57.91279297 1.14820801 57.20058594 0.90258789 56.46679688 C-2.2384222 46.63880429 -3.32238067 37.43924499 -3.25 27.125 C-3.25773437 26.03058594 -3.26546875 24.93617188 -3.2734375 23.80859375 C-3.23238704 6.46477408 -3.23238704 6.46477408 0 0 Z " fill="#1F2B5B" transform="translate(64,340)"/>
<path d="M0 0 C0.85758911 -0.00315216 1.71517822 -0.00630432 2.59875488 -0.009552 C3.53102905 -0.00752777 4.46330322 -0.00550354 5.42382812 -0.00341797 C6.84979309 -0.00485306 6.84979309 -0.00485306 8.30456543 -0.00631714 C10.31876695 -0.00699904 12.33297065 -0.00514409 14.34716797 -0.00097656 C17.44178167 0.00437155 20.53625022 -0.00092124 23.63085938 -0.00732422 C25.58268261 -0.00666344 27.53450576 -0.00538228 29.48632812 -0.00341797 C30.41860229 -0.0054422 31.35087646 -0.00746643 32.31140137 -0.009552 C33.16899048 -0.00639984 34.02657959 -0.00324768 34.91015625 0 C35.66880981 0.00079559 36.42746338 0.00159119 37.20910645 0.00241089 C38.95507812 0.12939453 38.95507812 0.12939453 39.95507812 1.12939453 C40.04803628 2.5722924 40.07254325 4.01969238 40.06860352 5.46557617 C40.06849022 6.84689476 40.06849022 6.84689476 40.06837463 8.25611877 C40.06321335 9.25715134 40.05805206 10.2581839 40.05273438 11.28955078 C40.05131943 12.3091539 40.04990448 13.32875702 40.04844666 14.3792572 C40.04282909 17.6501656 40.03027363 20.92100666 40.01757812 24.19189453 C40.01256539 26.40348209 40.00800209 28.61507071 40.00390625 30.82666016 C39.99285396 36.2609281 39.97609876 41.69515651 39.95507812 47.12939453 C40.52914902 47.12717392 41.10321991 47.12495331 41.69468689 47.12266541 C47.64760722 47.10061196 53.60051603 47.08548769 59.5534668 47.07446289 C61.77775544 47.06942136 64.00204075 47.06258831 66.22631836 47.05395508 C69.41586121 47.04188155 72.60536041 47.03616457 75.79492188 47.03173828 C77.29647072 47.02399635 77.29647072 47.02399635 78.82835388 47.01609802 C79.74923294 47.01602249 80.670112 47.01594696 81.61889648 47.01586914 C82.84134315 47.01253822 82.84134315 47.01253822 84.08848572 47.00914001 C85.95507812 47.12939453 85.95507812 47.12939453 86.95507812 48.12939453 C87.05293154 49.4748378 87.08305798 50.82532016 87.08447266 52.17431641 C87.08762482 53.03190552 87.09077698 53.88949463 87.09402466 54.77307129 C87.09098831 56.17148254 87.09098831 56.17148254 87.08789062 57.59814453 C87.08884735 58.54878784 87.08980408 59.49943115 87.09078979 60.47888184 C87.09147169 62.49308335 87.08961674 64.50728705 87.08544922 66.52148438 C87.0801011 69.61609808 87.0853939 72.71056663 87.09179688 75.80517578 C87.0911361 77.75699902 87.08985494 79.70882217 87.08789062 81.66064453 C87.08991486 82.5929187 87.09193909 83.52519287 87.09402466 84.48571777 C87.08929642 85.77210144 87.08929642 85.77210144 87.08447266 87.08447266 C87.08367706 87.84312622 87.08288147 88.60177979 87.08206177 89.38342285 C86.95507812 91.12939453 86.95507812 91.12939453 85.95507812 92.12939453 C84.51218026 92.22235269 83.06478028 92.24685966 81.61889648 92.24291992 C80.69801743 92.24284439 79.77713837 92.24276886 78.82835388 92.24269104 C77.82732132 92.23752975 76.82628876 92.23236847 75.79492188 92.22705078 C74.2655172 92.22492836 74.2655172 92.22492836 72.70521545 92.22276306 C69.43430705 92.2171455 66.16346599 92.20459003 62.89257812 92.19189453 C60.68099057 92.18688179 58.46940194 92.1823185 56.2578125 92.17822266 C50.82354456 92.16717037 45.38931615 92.15041516 39.95507812 92.12939453 C39.95729874 92.70346542 39.95951935 93.27753632 39.96180725 93.8690033 C39.98386069 99.82192363 39.99898497 105.77483243 40.01000977 111.7277832 C40.01505129 113.95207185 40.02188435 116.17635716 40.03051758 118.40063477 C40.04259111 121.59017762 40.04830808 124.77967682 40.05273438 127.96923828 C40.05789566 128.97027084 40.06305695 129.97130341 40.06837463 131.00267029 C40.06845016 131.92354935 40.0685257 132.84442841 40.06860352 133.79321289 C40.07082413 134.60817734 40.07304474 135.42314178 40.07533264 136.26280212 C39.95507812 138.12939453 39.95507812 138.12939453 38.95507812 139.12939453 C37.60963486 139.22724794 36.2591525 139.25737438 34.91015625 139.25878906 C34.05256714 139.26194122 33.19497803 139.26509338 32.31140137 139.26834106 C31.3791272 139.26631683 30.44685303 139.2642926 29.48632812 139.26220703 C28.06036316 139.26364212 28.06036316 139.26364212 26.60559082 139.2651062 C24.5913893 139.2657881 22.5771856 139.26393315 20.56298828 139.25976562 C17.46837458 139.25441751 14.37390603 139.2597103 11.27929688 139.26611328 C9.32747364 139.2654525 7.37565049 139.26417134 5.42382812 139.26220703 C4.02541687 139.26524338 4.02541687 139.26524338 2.59875488 139.26834106 C1.74116577 139.2651889 0.88357666 139.26203674 0 139.25878906 C-0.75865356 139.25799347 -1.51730713 139.25719788 -2.2989502 139.25637817 C-4.04492188 139.12939453 -4.04492188 139.12939453 -5.04492188 138.12939453 C-5.13788003 136.68649667 -5.162387 135.23909669 -5.15844727 133.79321289 C-5.15837173 132.87233383 -5.1582962 131.95145477 -5.15821838 131.00267029 C-5.1530571 130.00163773 -5.14789581 129.00060516 -5.14257812 127.96923828 C-5.14116318 126.94963516 -5.13974823 125.93003204 -5.13829041 124.87953186 C-5.13267284 121.60862346 -5.12011738 118.3377824 -5.10742188 115.06689453 C-5.10240914 112.85530697 -5.09784584 110.64371835 -5.09375 108.43212891 C-5.08269771 102.99786096 -5.06594251 97.56363256 -5.04492188 92.12939453 C-5.61899277 92.13161514 -6.19306366 92.13383575 -6.78453064 92.13612366 C-12.73745097 92.1581771 -18.69035978 92.17330137 -24.64331055 92.18432617 C-26.86759919 92.1893677 -29.0918845 92.19620076 -31.31616211 92.20483398 C-34.50570496 92.21690752 -37.69520416 92.22262449 -40.88476562 92.22705078 C-42.38631447 92.23479271 -42.38631447 92.23479271 -43.91819763 92.24269104 C-44.83907669 92.24276657 -45.75995575 92.2428421 -46.70874023 92.24291992 C-47.52370468 92.24514053 -48.33866913 92.24736115 -49.17832947 92.24964905 C-51.04492188 92.12939453 -51.04492188 92.12939453 -52.04492188 91.12939453 C-52.14277529 89.78395126 -52.17290173 88.4334689 -52.17431641 87.08447266 C-52.17746857 86.22688354 -52.18062073 85.36929443 -52.18386841 84.48571777 C-52.18184418 83.5534436 -52.17981995 82.62116943 -52.17773438 81.66064453 C-52.1786911 80.71000122 -52.17964783 79.75935791 -52.18063354 78.77990723 C-52.18131544 76.76570571 -52.17946049 74.75150201 -52.17529297 72.73730469 C-52.16994485 69.64269099 -52.17523765 66.54822243 -52.18164062 63.45361328 C-52.18097985 61.50179004 -52.17969869 59.54996689 -52.17773438 57.59814453 C-52.17975861 56.66587036 -52.18178284 55.73359619 -52.18386841 54.77307129 C-52.18071625 53.91548218 -52.17756409 53.05789307 -52.17431641 52.17431641 C-52.17352081 51.41566284 -52.17272522 50.65700928 -52.17190552 49.87536621 C-52.04492188 48.12939453 -52.04492188 48.12939453 -51.04492188 47.12939453 C-49.60202401 47.03643638 -48.15462403 47.0119294 -46.70874023 47.01586914 C-45.78786118 47.01594467 -44.86698212 47.0160202 -43.91819763 47.01609802 C-42.91716507 47.02125931 -41.91613251 47.02642059 -40.88476562 47.03173828 C-39.86516251 47.03315323 -38.84555939 47.03456818 -37.7950592 47.036026 C-34.5241508 47.04164356 -31.25330974 47.05419903 -27.98242188 47.06689453 C-25.77083432 47.07190727 -23.55924569 47.07647057 -21.34765625 47.08056641 C-15.91338831 47.0916187 -10.4791599 47.1083739 -5.04492188 47.12939453 C-5.04714249 46.55532364 -5.0493631 45.98125275 -5.051651 45.38978577 C-5.07370444 39.43686544 -5.08882872 33.48395663 -5.09985352 27.53100586 C-5.10489504 25.30671721 -5.1117281 23.0824319 -5.12036133 20.8581543 C-5.13243486 17.66861144 -5.13815183 14.47911224 -5.14257812 11.28955078 C-5.14773941 10.28851822 -5.1529007 9.28748566 -5.15821838 8.25611877 C-5.15829391 7.33523972 -5.15836945 6.41436066 -5.15844727 5.46557617 C-5.16066788 4.65061172 -5.16288849 3.83564728 -5.16517639 2.99598694 C-4.93764925 -0.53569268 -3.06971338 0.00321918 0 0 Z " fill="#1F2B5B" transform="translate(213.044921875,200.87060546875)"/>
<path d="M0 0 C0.99 0.33 1.98 0.66 3 1 C0.36 3.97 -2.28 6.94 -5 10 C-5.66 9.67 -6.32 9.34 -7 9 C-6.21448343 7.68381002 -5.4213763 6.37214772 -4.625 5.0625 C-4.18414062 4.33160156 -3.74328125 3.60070312 -3.2890625 2.84765625 C-2 1 -2 1 0 0 Z " fill="#20978F" transform="translate(386,421)"/>
<path d="M0 0 C2.40072955 2.88087546 4.47291037 5.56404834 6 9 C1.79373966 7.49776416 0.26099979 4.71449966 -2 1 C-1.34 0.67 -0.68 0.34 0 0 Z " fill="#20948E" transform="translate(75,421)"/>
</svg>
